<?xml version="1.0" standalone="no"?>
<!DOCTYPE svg PUBLIC "-//W3C//DTD SVG 20010904//EN"
 "http://www.w3.org/TR/2001/REC-SVG-20010904/DTD/svg10.dtd">
<svg version="1.0" xmlns="http://www.w3.org/2000/svg"
 width="300.000000pt" height="200.000000pt" viewBox="0 0 300.000000 200.000000"
 preserveAspectRatio="xMidYMid meet">
<metadata>
Created by potrace 1.10, written by Peter Selinger 2001-2011
</metadata>
<g transform="translate(0.000000,200.000000) scale(0.100000,-0.100000)"
fill="#000000" stroke="none">
<path d="M1383 1465 c-138 -30 -266 -133 -325 -262 -55 -121 -50 -291 13 -414
31 -61 123 -153 188 -188 288 -153 628 16 683 339 42 242 -130 484 -376 529
-74 14 -105 13 -183 -4z m271 -73 c155 -72 246 -214 246 -382 0 -376 -457
-560 -720 -290 -215 221 -120 593 178 691 87 29 210 21 296 -19z"/>
<path d="M1417 1409 c-108 -21 -218 -93 -273 -181 -103 -163 -76 -378 63 -511
26 -24 33 -26 57 -17 29 11 46 6 46 -12 0 -6 -12 -8 -32 -4 -32 5 -32 5 -13
-10 42 -34 107 -55 178 -59 l72 -4 -62 11 c-35 6 -63 14 -63 18 0 4 35 7 78 6
42 0 94 4 115 8 58 13 46 -10 -14 -25 -28 -7 -46 -15 -40 -17 20 -7 121 28
171 59 113 70 206 254 185 368 -4 20 -9 47 -12 61 -5 31 -13 39 -13 14 0 -25
-85 68 -101 111 -12 32 -75 88 -134 118 -40 21 -46 38 -12 30 32 -7 67 -24
105 -51 17 -14 32 -20 32 -16 0 14 -65 54 -127 79 -70 28 -142 36 -206 24z
m76 -36 c-7 -17 -19 -17 -26 1 -7 18 14 40 24 24 4 -6 5 -17 2 -25z m-125 -5
c-3 -7 -14 -14 -26 -16 -12 -2 -22 -8 -22 -13 0 -6 -4 -8 -9 -4 -5 3 -12 1
-16 -5 -4 -6 -11 -7 -17 -4 -7 5 -4 10 8 16 10 5 30 15 44 23 31 18 43 19 38
3z m224 -54 c60 -20 121 -73 148 -130 19 -39 22 -57 18 -127 -5 -94 -27 -145
-85 -203 -116 -117 -282 -111 -395 15 -55 61 -78 122 -78 205 1 105 54 186
155 232 60 29 167 32 237 8z m-322 -1 c0 -12 -33 -43 -47 -43 -16 0 -17 22 -1
38 13 13 48 17 48 5z m-72 -100 c-10 -12 -13 -12 -20 1 -4 8 -5 22 -1 32 6 16
7 16 19 -1 11 -14 11 -22 2 -32z m-33 -23 c3 -5 -3 -25 -14 -45 -11 -22 -21
-31 -24 -23 -3 7 -6 -12 -6 -43 -1 -42 -5 -56 -16 -56 -9 0 -13 8 -10 21 2 12
6 37 9 56 7 38 36 100 48 100 4 0 9 -4 13 -10z m645 -130 c0 -32 -6 -52 -17
-63 -17 -15 -18 -11 -18 63 0 74 1 78 18 63 11 -11 17 -31 17 -63z m-624 -6
c0 -76 0 -76 -18 -54 -20 24 -24 81 -8 111 19 34 25 20 26 -57z m687 -60 c-6
-17 -20 -18 -26 -1 -8 22 4 39 19 27 7 -7 10 -18 7 -26z m-750 -50 c-6 -16 -7
-16 -19 1 -11 14 -11 22 -2 32 10 12 13 12 20 -1 4 -8 5 -22 1 -32z m719 0
c-14 -11 -15 -16 -5 -33 15 -25 2 -68 -39 -128 -33 -49 -40 -54 -56 -44 -14 8
16 81 33 81 6 0 22 12 36 26 l24 26 -32 27 -32 27 26 26 c21 21 29 24 44 15
16 -10 16 -12 1 -23z m-654 -22 c11 -15 23 -46 27 -67 6 -38 24 -84 36 -95 3
-3 0 -15 -6 -28 l-12 -22 -25 22 c-33 31 -68 82 -68 102 0 9 -4 16 -10 16 -5
0 -13 11 -16 26 -5 18 0 32 17 50 29 30 33 30 57 -4z m605 -68 c-6 -16 -7 -16
-19 1 -11 14 -11 22 -2 32 10 12 13 12 20 -1 4 -8 5 -22 1 -32z m-67 -30 c-10
-39 -63 -90 -118 -114 -44 -19 -65 -22 -133 -18 -102 5 -161 36 -201 103 -37
65 -28 89 13 32 37 -51 118 -98 167 -96 27 1 24 3 -17 14 -27 7 -52 16 -55 20
-4 4 7 3 23 -2 89 -24 188 -1 264 62 43 37 39 17 -6 -27 -42 -41 -95 -67 -163
-78 l-45 -8 39 -1 c21 0 57 4 79 11 52 16 128 85 132 120 2 15 7 33 12 40 11
17 17 -24 9 -58z m-12 -128 c-5 -13 -10 -14 -20 -5 -10 8 -11 16 -3 32 10 18
13 18 20 4 5 -8 6 -23 3 -31z"/>
<path d="M1613 1275 c33 -19 35 -29 5 -20 -17 5 -15 1 9 -15 18 -12 46 -40 63
-63 16 -22 30 -34 30 -26 0 12 2 12 11 -1 21 -29 -1 23 -23 56 -22 32 -69 69
-103 79 -11 4 -8 -1 8 -10z m76 -62 c17 -21 31 -42 31 -48 0 -5 -9 3 -20 20
-10 16 -30 37 -42 47 -13 10 -18 18 -11 18 6 0 25 -17 42 -37z"/>
<path d="M1433 1263 c-7 -2 -13 -13 -13 -24 0 -17 8 -19 59 -19 60 0 82 15 58
39 -11 11 -81 14 -104 4z m92 -23 c-3 -5 -24 -10 -46 -10 -21 0 -39 5 -39 10
0 6 21 10 46 10 27 0 43 -4 39 -10z"/>
<path d="M1349 1199 c-42 -6 -89 -24 -89 -33 0 -2 21 2 47 10 25 8 80 14 121
14 42 0 73 2 71 4 -10 8 -108 12 -150 5z"/>
<path d="M1380 1174 c-14 -2 -40 -7 -58 -10 -51 -8 -72 -35 -72 -94 0 -111 39
-135 220 -134 200 1 240 21 240 122 0 66 -11 87 -52 102 -34 12 -233 22 -278
14z m90 -39 c14 -13 19 -13 28 -2 17 21 72 9 82 -17 12 -34 35 -48 64 -40 20
5 26 2 26 -9 0 -9 -4 -18 -9 -21 -5 -3 -7 -15 -4 -27 5 -19 -14 -33 -41 -29
-5 1 -13 -4 -17 -12 -7 -10 -9 -10 -9 0 0 16 -39 15 -46 -2 -4 -9 -20 -12 -57
-9 -96 7 -111 10 -115 22 -2 6 -16 11 -31 11 -29 0 -51 16 -51 37 0 7 9 13 19
13 24 0 37 36 21 55 -10 12 -9 15 4 15 9 0 16 7 16 15 0 21 97 21 120 0z m167
-39 c-16 -18 -40 3 -25 22 8 9 14 9 24 1 10 -8 10 -14 1 -23z"/>
<path d="M1660 939 c-14 -6 -68 -14 -120 -18 l-95 -8 80 -2 c80 -1 149 12 160
29 7 12 7 12 -25 -1z"/>
<path d="M1430 845 l0 -36 63 3 c62 3 62 3 62 33 0 26 -4 30 -30 32 -29 2 -29
2 -5 -7 21 -7 17 -8 -22 -9 -27 -1 -48 -6 -51 -13 -4 -8 -6 -7 -6 4 -1 9 7 19
17 21 13 4 11 5 -5 6 -20 1 -23 -4 -23 -34z m110 -10 c0 -11 -11 -15 -47 -13
l-48 1 43 4 c23 2 42 8 42 14 0 5 2 9 5 9 3 0 5 -7 5 -15z"/>
<path d="M1752 1287 c-11 -12 -8 -16 16 -25 20 -7 37 -26 57 -65 16 -31 31
-54 33 -52 5 5 -45 98 -70 129 -21 24 -25 26 -36 13z"/>
</g>
</svg>
